{"title":"The Peanuts Movie 2015 DVDSCR x264 AC3 TiTAN","uid":13024900,"size":1563811528,"categoryP":"video","categoryS":"movies","magnet":"?xt=urn:btih:cd037cc85ed485ba47ba90dbbf8c976c2246e7ef&amp;dn=The+Peanuts+Movie+2015+DVDSCR+x264+AC3+TiTAN&amp;tr=udp%3A%2F%2Ftracker.leechers-paradise.org%3A6969&amp;tr=udp%3A%2F%2Fzer0day.ch%3A1337&amp;tr=udp%3A%2F%2Fopen.demonii.com%3A1337&amp;tr=udp%3A%2F%2Ftracker.coppersurfer.tk%3A6969&amp;tr=udp%3A%2F%2Fexodus.desync.com%3A6969","seeders":0,"leechers":1,"uploader":"TvTeam","files":3,"time":1450392179,"description":"------------------------------------------------------------------------\r\n\r  https://www.torrenting.com\r\n\r\nSign up is OPEN - for time being. Come and have fun.\r\n\r\n------------------------------------------------------------------------[img]http://i.imgur.com/rFrIAKr.jpg[/img]\r\n \nhttp://www.imdb.com/title/tt2452042/\r\n\r\nSource:ISO\r\n\r\nGeneral\r\n                               : \r\nFormat                                   : Matroska\r\nFormat version                           : Version 2\r\nFile size                                : 1.46 GiB\r\nDuration                                 : 1h 28mn\r\nOverall bit rate mode                    : Variable\r\nOverall bit rate                         : 2 367 Kbps\r\n\r\nVideo\r\nID                                       : 1\r\nFormat                                   : AVC\r\nFormat/Info                              : Advanced Video Codec\r\nFormat profile                           :   \r\nFormat settings, CABAC                   : Yes\r\nFormat settings, ReFrames                : 3 frames\r\nCodec ID                                 : V_MPEG4/ISO/AVC\r\nDuration                                 : 1h 28mn\r\nBit rate mode                            : Variable\r\nBit rate                                 : 1 872 Kbps\r\nMaximum bit rate                         : 40.0 Mbps\r\nWidth                                    : 720 pixels\r\nHeight                                   : 384 pixels\r\nDisplay aspect ratio                     : 1.85:1\r\nFrame rate mode                          : Constant\r\nFrame rate                               : 23.976 fps\r\nColor space                              : YUV\r\nChroma subsampling                       : 4:2:0\r\nBit depth                                : 8 bits\r\nScan type                                : Progressive\r\nBits/(Pixel*Frame)                       : 0.282\r\nStream size                              : 1.15 GiB (79%)\r\nDefault                                  : Yes\r\nForced                                   : No\r\nColor primaries                          : BT.709\r\nTransfer characteristics                 : BT.709\r\nMatrix coefficients                      : BT.709\r\n\r\nAudio\r\nID                                       : 2\r\nFormat                                   : AC-3\r\nFormat/Info                              : Audio Coding 3\r\nMode extension                           : CM (complete main)\r\nFormat settings, Endianness              : Big\r\nCodec ID                                 : A_AC3\r\nDuration                                 : 1h 28mn\r\nBit rate mode                            : Constant\r\nBit rate                                 : 448 Kbps\r\nChannel(s)                               : 6 channels\r\nChannel positions                        : Front: L C R, Side: L R, LFE\r\nSampling rate                            : 48.0 KHz\r\nBit depth                                : 16 bits\r\nCompression mode                         : Lossy\r\nStream size                              : 282 MiB (19%)\r\nLanguage                                 : English\r\nDefault                                  : Yes\r\nForced                                   : No\r\n\r\n[img]http://i.imgur.com/b9yEAdU.png[/img]\r\n[img]http://i.imgur.com/J5nYKyc.png[/img]\r\n[img]http://i.imgur.com/WJU3zjm.png[/img]\r\n[img]http://i.imgur.com/Q8lNsvn.png[/img]\r\n[img]http://i.imgur.com/YcRa2yj.png[/img]","torrent":{"xt":"urn:btih:cd037cc85ed485ba47ba90dbbf8c976c2246e7ef","amp;dn":"The+Peanuts+Movie+2015+DVDSCR+x264+AC3+TiTAN","amp;tr":["udp%3A%2F%2Ftracker.leechers-paradise.org%3A6969","udp%3A%2F%2Fzer0day.ch%3A1337","udp%3A%2F%2Fopen.demonii.com%3A1337","udp%3A%2F%2Ftracker.coppersurfer.tk%3A6969","udp%3A%2F%2Fexodus.desync.com%3A6969"],"infoHash":"cd037cc85ed485ba47ba90dbbf8c976c2246e7ef","infoHashBuffer":{"type":"Buffer","data":[205,3,124,200,94,212,133,186,71,186,144,219,191,140,151,108,34,70,231,239]},"announce":[],"urlList":[]}}